<mxfile host="app.diagrams.net" agent="Mozilla/5.0 (X11; Ubuntu; Linux x86_64; rv:137.0) Gecko/20100101 Firefox/137.0" version="26.2.8">
  <diagram name="Página-1" id="SBCsVPUeXtF9hYlUBdNZ">
    <mxGraphModel dx="1407" dy="589" grid="1" gridSize="10" guides="1" tooltips="1" connect="1" arrows="1" fold="1" page="0" pageScale="1" pageWidth="827" pageHeight="1169" math="0" shadow="0">
      <root>
        <mxCell id="0" />
        <mxCell id="1" parent="0" />
        <mxCell id="XDR-j0-Dpszl2aPEmveP-2" value="Class B" style="rounded=0;whiteSpace=wrap;html=1;" vertex="1" parent="1">
          <mxGeometry x="160" y="10" width="120" height="60" as="geometry" />
        </mxCell>
        <mxCell id="XDR-j0-Dpszl2aPEmveP-5" style="edgeStyle=orthogonalEdgeStyle;rounded=0;orthogonalLoop=1;jettySize=auto;html=1;exitX=1;exitY=0.5;exitDx=0;exitDy=0;" edge="1" parent="1" source="XDR-j0-Dpszl2aPEmveP-3" target="XDR-j0-Dpszl2aPEmveP-2">
          <mxGeometry relative="1" as="geometry" />
        </mxCell>
        <mxCell id="XDR-j0-Dpszl2aPEmveP-3" value="Class A" style="rounded=0;whiteSpace=wrap;html=1;" vertex="1" parent="1">
          <mxGeometry x="-120" y="10" width="120" height="60" as="geometry" />
        </mxCell>
        <mxCell id="XDR-j0-Dpszl2aPEmveP-16" style="edgeStyle=orthogonalEdgeStyle;rounded=0;orthogonalLoop=1;jettySize=auto;html=1;" edge="1" parent="1" source="XDR-j0-Dpszl2aPEmveP-6" target="XDR-j0-Dpszl2aPEmveP-8">
          <mxGeometry relative="1" as="geometry" />
        </mxCell>
        <mxCell id="XDR-j0-Dpszl2aPEmveP-6" value="Class B" style="rounded=0;whiteSpace=wrap;html=1;" vertex="1" parent="1">
          <mxGeometry x="160" y="90" width="120" height="60" as="geometry" />
        </mxCell>
        <mxCell id="XDR-j0-Dpszl2aPEmveP-15" style="edgeStyle=orthogonalEdgeStyle;rounded=0;orthogonalLoop=1;jettySize=auto;html=1;entryX=0;entryY=0.5;entryDx=0;entryDy=0;" edge="1" parent="1" source="XDR-j0-Dpszl2aPEmveP-8" target="XDR-j0-Dpszl2aPEmveP-6">
          <mxGeometry relative="1" as="geometry" />
        </mxCell>
        <mxCell id="XDR-j0-Dpszl2aPEmveP-8" value="Class A" style="rounded=0;whiteSpace=wrap;html=1;" vertex="1" parent="1">
          <mxGeometry x="-120" y="90" width="120" height="60" as="geometry" />
        </mxCell>
        <mxCell id="XDR-j0-Dpszl2aPEmveP-9" value="Class B" style="rounded=0;whiteSpace=wrap;html=1;" vertex="1" parent="1">
          <mxGeometry x="160" y="180" width="120" height="60" as="geometry" />
        </mxCell>
        <mxCell id="XDR-j0-Dpszl2aPEmveP-11" value="Class A" style="rounded=0;whiteSpace=wrap;html=1;" vertex="1" parent="1">
          <mxGeometry x="-120" y="180" width="120" height="60" as="geometry" />
        </mxCell>
        <mxCell id="XDR-j0-Dpszl2aPEmveP-12" value="Class B" style="rounded=0;whiteSpace=wrap;html=1;" vertex="1" parent="1">
          <mxGeometry x="160" y="270" width="120" height="60" as="geometry" />
        </mxCell>
        <mxCell id="XDR-j0-Dpszl2aPEmveP-14" value="Class A" style="rounded=0;whiteSpace=wrap;html=1;" vertex="1" parent="1">
          <mxGeometry x="-120" y="270" width="120" height="60" as="geometry" />
        </mxCell>
        <mxCell id="XDR-j0-Dpszl2aPEmveP-17" value="" style="endArrow=open;html=1;endSize=12;startArrow=diamondThin;startSize=14;startFill=0;edgeStyle=orthogonalEdgeStyle;rounded=0;" edge="1" parent="1">
          <mxGeometry relative="1" as="geometry">
            <mxPoint y="299.63" as="sourcePoint" />
            <mxPoint x="160" y="299.63" as="targetPoint" />
          </mxGeometry>
        </mxCell>
        <mxCell id="XDR-j0-Dpszl2aPEmveP-20" value="&lt;div&gt;Associação Simples&lt;/div&gt;&lt;div&gt;Navegação de A para B&lt;/div&gt;" style="text;html=1;align=center;verticalAlign=middle;whiteSpace=wrap;rounded=0;" vertex="1" parent="1">
          <mxGeometry x="320" y="25" width="150" height="30" as="geometry" />
        </mxCell>
        <mxCell id="XDR-j0-Dpszl2aPEmveP-21" value="&lt;div&gt;&lt;br&gt;&lt;/div&gt;&lt;div&gt;Agregação -&amp;gt; Class A existe possui relação com B mas existe de forma independente&lt;/div&gt;" style="text;html=1;align=center;verticalAlign=middle;whiteSpace=wrap;rounded=0;" vertex="1" parent="1">
          <mxGeometry x="300" y="285" width="239" height="30" as="geometry" />
        </mxCell>
        <mxCell id="XDR-j0-Dpszl2aPEmveP-22" value="Associação Bidirecional" style="text;html=1;align=center;verticalAlign=middle;whiteSpace=wrap;rounded=0;" vertex="1" parent="1">
          <mxGeometry x="320" y="105" width="150" height="30" as="geometry" />
        </mxCell>
        <mxCell id="XDR-j0-Dpszl2aPEmveP-23" value="Composição - &amp;gt; Dependencia existencial de uma classe a outra " style="text;html=1;align=center;verticalAlign=middle;whiteSpace=wrap;rounded=0;" vertex="1" parent="1">
          <mxGeometry x="309.5" y="195" width="220" height="30" as="geometry" />
        </mxCell>
        <mxCell id="XDR-j0-Dpszl2aPEmveP-24" value="" style="endArrow=open;html=1;endSize=12;startArrow=diamondThin;startSize=14;startFill=1;edgeStyle=orthogonalEdgeStyle;align=left;verticalAlign=bottom;rounded=0;" edge="1" parent="1">
          <mxGeometry x="-1" y="3" relative="1" as="geometry">
            <mxPoint y="209.63" as="sourcePoint" />
            <mxPoint x="160" y="209.63" as="targetPoint" />
          </mxGeometry>
        </mxCell>
        <mxCell id="XDR-j0-Dpszl2aPEmveP-25" value="CANDIDADO" style="rounded=0;whiteSpace=wrap;html=1;" vertex="1" parent="1">
          <mxGeometry x="20" y="400" width="120" height="60" as="geometry" />
        </mxCell>
        <mxCell id="XDR-j0-Dpszl2aPEmveP-26" value="PROFISSÃO" style="rounded=0;whiteSpace=wrap;html=1;" vertex="1" parent="1">
          <mxGeometry x="250" y="400" width="120" height="60" as="geometry" />
        </mxCell>
        <mxCell id="XDR-j0-Dpszl2aPEmveP-27" value="" style="endArrow=open;html=1;endSize=12;startArrow=diamondThin;startSize=14;startFill=0;edgeStyle=orthogonalEdgeStyle;rounded=0;exitX=1;exitY=0.5;exitDx=0;exitDy=0;" edge="1" parent="1">
          <mxGeometry relative="1" as="geometry">
            <mxPoint x="140" y="429.68" as="sourcePoint" />
            <mxPoint x="250" y="429.63" as="targetPoint" />
          </mxGeometry>
        </mxCell>
        <mxCell id="XDR-j0-Dpszl2aPEmveP-30" value="O candidato precisa deuma profissão no cadastro, mas ele pode ser cadastrado sem nenhuma profissão, pois o candidato já existe na base de dados. " style="text;html=1;align=center;verticalAlign=middle;whiteSpace=wrap;rounded=0;" vertex="1" parent="1">
          <mxGeometry x="20" y="490" width="330" height="30" as="geometry" />
        </mxCell>
        <mxCell id="XDR-j0-Dpszl2aPEmveP-34" value="ADMISSÃO" style="rounded=0;whiteSpace=wrap;html=1;" vertex="1" parent="1">
          <mxGeometry x="-200" y="400" width="120" height="60" as="geometry" />
        </mxCell>
        <mxCell id="XDR-j0-Dpszl2aPEmveP-35" value="" style="endArrow=open;html=1;endSize=12;startArrow=diamondThin;startSize=14;startFill=1;edgeStyle=orthogonalEdgeStyle;align=left;verticalAlign=bottom;rounded=0;" edge="1" parent="1">
          <mxGeometry x="-1" y="3" relative="1" as="geometry">
            <mxPoint x="-80" y="430" as="sourcePoint" />
            <mxPoint x="20" y="430" as="targetPoint" />
          </mxGeometry>
        </mxCell>
        <mxCell id="XDR-j0-Dpszl2aPEmveP-36" value="Admissão só existe se houver o candidato" style="text;html=1;align=center;verticalAlign=middle;whiteSpace=wrap;rounded=0;" vertex="1" parent="1">
          <mxGeometry x="-200" y="480" width="130" height="30" as="geometry" />
        </mxCell>
      </root>
    </mxGraphModel>
  </diagram>
</mxfile>
